<?xml version="1.0" encoding="UTF-8"?>
<svg id="Ebene_2" data-name="Ebene 2" xmlns="http://www.w3.org/2000/svg" viewBox="0 0 216.9 56.97">
  <defs>
    <style>
      .cls-1 {
        fill: none;
      }

      .cls-2 {
        fill: #0065aa;
      }
    </style>
  </defs>
  <g id="Ebene_1-2" data-name="Ebene 1">
    <g>
      <path class="cls-2" d="M41.98,20.93l1.25-5.12h-18.43l-5.94,23.66h18.77l1.3-5.12h-12.34l1.12-4.51h10.36l1.22-4.84h-10.37l1.01-4.07h12.04ZM37.62,26.31l-.56,2.21h-10.36l-1.78,7.14h12.33l-.63,2.5h-16.07l5.28-21.04h15.74l-.61,2.5h-12.03l-1.66,6.69h10.36Z"/>
      <path class="cls-2" d="M216.64,38.33v-3.81h-11.4V15.98h-4.34v22.35h15.74ZM180.26,24.43c.28-.89.7-1.69,1.24-2.39.54-.7,1.23-1.27,2.05-1.7.82-.43,1.75-.65,2.8-.65s1.91.21,2.72.61c.81.41,1.49.96,2.05,1.65.56.69.99,1.49,1.29,2.39s.46,1.84.46,2.8-.14,1.83-.43,2.72c-.28.89-.7,1.69-1.26,2.41-.56.71-1.24,1.29-2.05,1.72-.81.43-1.74.65-2.79.65s-1.95-.21-2.76-.63c-.81-.42-1.49-.97-2.05-1.67-.56-.69-.98-1.49-1.28-2.39-.29-.9-.44-1.84-.44-2.8s.14-1.83.42-2.72M190.7,37.55c1.34-.62,2.5-1.45,3.46-2.49.97-1.04,1.72-2.24,2.27-3.59.55-1.35.82-2.77.82-4.26,0-1.41-.26-2.79-.79-4.16-.52-1.36-1.26-2.58-2.2-3.65-.95-1.07-2.08-1.94-3.42-2.6s-2.81-.99-4.42-.99-3.03.31-4.38.93c-1.34.62-2.5,1.45-3.48,2.5-.98,1.05-1.74,2.26-2.3,3.62-.56,1.37-.83,2.79-.83,4.28s.26,2.82.79,4.19c.52,1.37,1.27,2.58,2.22,3.64.96,1.06,2.1,1.91,3.43,2.55,1.33.64,2.82.96,4.45.96s3.03-.31,4.38-.93M159.88,19.78h5.26c.38,0,.75.09,1.12.27.37.18.69.43.98.76.28.33.51.71.68,1.15.17.44.25.92.25,1.45s-.07.98-.22,1.42c-.15.44-.35.82-.6,1.15-.25.33-.55.58-.9.77-.35.19-.72.28-1.12.28h-5.45v-7.24ZM159.88,38.33v-7.49h4.28l4.56,7.49h4.88l-5.1-8.4c1.24-.52,2.22-1.38,2.94-2.57.72-1.19,1.09-2.5,1.09-3.95,0-.9-.18-1.8-.53-2.69-.36-.89-.85-1.69-1.48-2.39-.63-.7-1.38-1.27-2.25-1.7-.87-.43-1.82-.65-2.85-.65h-9.89v22.35h4.35ZM152.45,15.98h-18.61v3.81h7.15v18.54h4.31v-18.54h7.15v-3.81ZM127.24,38.33h3.52v-22.32h-4.34v14.64l-11.65-14.67h-3.37v22.35h4.34v-14.32l11.49,14.32ZM90.77,24.43c.28-.89.7-1.69,1.24-2.39.54-.7,1.23-1.27,2.05-1.7.82-.43,1.75-.65,2.8-.65s1.92.21,2.72.61c.81.41,1.49.96,2.05,1.65.56.69.99,1.49,1.29,2.39.3.9.46,1.84.46,2.8s-.14,1.83-.43,2.72c-.28.89-.7,1.69-1.26,2.41-.56.71-1.24,1.29-2.05,1.72-.81.43-1.74.65-2.79.65s-1.95-.21-2.75-.63c-.81-.42-1.49-.97-2.05-1.67-.56-.69-.98-1.49-1.28-2.39-.29-.9-.44-1.84-.44-2.8s.14-1.83.43-2.72M101.2,37.55c1.34-.62,2.5-1.45,3.46-2.49.97-1.04,1.72-2.24,2.27-3.59.55-1.35.82-2.77.82-4.26,0-1.41-.26-2.79-.79-4.16-.53-1.36-1.26-2.58-2.2-3.65-.94-1.07-2.08-1.94-3.41-2.6-1.33-.66-2.81-.99-4.42-.99s-3.03.31-4.38.93c-1.34.62-2.5,1.45-3.48,2.5-.98,1.05-1.74,2.26-2.3,3.62-.56,1.37-.83,2.79-.83,4.28s.26,2.82.79,4.19c.52,1.37,1.27,2.58,2.22,3.64.96,1.06,2.1,1.91,3.43,2.55,1.33.64,2.82.96,4.46.96s3.03-.31,4.38-.93M65.05,31.2c.54,1.38,1.28,2.6,2.24,3.68.95,1.08,2.09,1.96,3.42,2.63,1.32.67,2.78,1.01,4.38,1.01.9,0,1.83-.12,2.77-.35.95-.23,1.83-.57,2.66-1.01.83-.44,1.57-.98,2.24-1.62.66-.64,1.17-1.38,1.53-2.22l-3.56-2.05c-.25.61-.59,1.13-1.01,1.56-.42.43-.88.78-1.37,1.05-.49.27-1.01.47-1.56.6-.55.13-1.07.19-1.57.19-.97,0-1.85-.21-2.66-.63-.81-.42-1.5-.98-2.08-1.67-.58-.69-1.02-1.5-1.34-2.41-.32-.91-.47-1.86-.47-2.85,0-.88.14-1.77.41-2.66.27-.89.68-1.69,1.21-2.39.54-.7,1.21-1.28,2.02-1.72.81-.44,1.76-.66,2.85-.66.5,0,1.02.06,1.54.17.52.12,1.03.3,1.51.55.48.25.93.59,1.35,1.02s.78.96,1.07,1.59l3.34-2.3c-.73-1.45-1.85-2.62-3.35-3.53-1.5-.9-3.28-1.35-5.34-1.35-1.74,0-3.29.33-4.66.98-1.36.65-2.52,1.5-3.46,2.55-.94,1.05-1.66,2.24-2.16,3.57-.49,1.33-.74,2.68-.74,4.04s.27,2.83.8,4.2M57.7,24.92h-9.54v3.81h9.54v-3.81Z"/>
      <path class="cls-2" d="M47.51,38.53c-3.64,6.1-10.4,10.2-18.15,10.2-11.6,0-21-9.2-21-20.54S17.77,7.65,29.37,7.65c3.04,0,5.93.64,8.54,1.78l3.53-6.71c-3.76-1.74-7.96-2.72-12.39-2.72C13,0,0,12.75,0,28.48s13,28.48,29.04,28.48c11.2,0,20.92-6.22,25.77-15.32l-7.3-3.11Z"/>
      <rect class="cls-1" x="0" y="0" width="216.9" height="56.97"/>
    </g>
  </g>
</svg>